<?xml version="1.0" standalone="no"?><!DOCTYPE svg PUBLIC "-//W3C//DTD SVG 1.1//EN" "http://www.w3.org/Graphics/SVG/1.1/DTD/svg11.dtd"><svg t="1736063163466" class="icon" viewBox="0 0 1024 1024" version="1.1" xmlns="http://www.w3.org/2000/svg" p-id="5225" xmlns:xlink="http://www.w3.org/1999/xlink" width="200" height="200"><path d="M454.472205 682.325333l174.867692 1.365334s-13.915897 45.187282-25.442461 62.936615c-18.79959 28.803282-28.146872 43.533128-36.155077 73.045333-12.393026 45.42359-11.369026 80.397128-11.369026 80.397129s9.688615-3.360821 21.451488 0c14.309744 4.096 22.055385 13.600821 20.795076 19.429743-1.207795 5.225026-17.119179 1.706667-28.146871 12.734359-8.717128 8.717128-12.077949 24.155897-13.443282 34.15959-1.365333 10.082462-2.730667 22.816821-21.451488 25.468718-18.79959 2.70441-46.867692 4.699897-52.959179-4.726154-5.986462-9.373538-2.730667-172.898462-2.730667-172.898462l-25.416205-131.912205z" fill="#307D31" p-id="5226"></path><path d="M452.476718 646.091487c-3.334564 5.986462-82.550154 20.217436-82.550154 20.217436s-26.466462 14.178462-36.49641 60.389744c-5.408821 25.074872-4.201026 75.776-8.92718 93.551589-6.721641 25.442462-34.894769 40.224821-33.529436 46.211282 1.365333 6.038974 25.915077 5.618872 44.898462-2.70441 42.850462-18.79959 50.386051-57.685333 64.301949-91.109743a118.285128 118.285128 0 0 1 38.859487-49.046975s-5.986462 23.368205-3.413333 49.099487c2.153026 22.186667 9.110974 50.412308 0 77.876513-8.717128 26.151385-20.978872 41.905231-16.09518 44.320821 3.675897 1.759179 47.366564-2.651897 64.800821-40.881231 19.272205-42.272821 20.637538-76.905026 32.164102-101.691077 12.734359-27.437949 36.969026-39.122051 36.969026-39.122051s17.197949 10.082462 38.229333 39.515897c23.446974 32.820513 43.060513 60.389744 55.66359 77.377641 29.617231 39.830974 70.656 52.381538 71.942564 45.686154 1.995487-10.738872-19.771077-27.936821-24.155897-48.889436-10.817641-51.620103 3.990974-76.327385-8.244513-115.922051-17.591795-57.212718-59.129436-58.236718-73.517949-60.967385-3.360821-0.472615-160.899282-3.938462-160.899282-3.938461z" fill="#5C9823" p-id="5227"></path><path d="M378.486154 354.724103c-9.058462-8.086974-142.966154-105.682051-142.966154-105.682052l-1.995487-59.339487s-32.820513-62.017641 4.962461-108.17641c32.794256-40.093538 76.563692-28.724513 76.563693-28.724513S336.948513 25.206154 375.177846 23.289436c48.889436-2.494359 72.730256 38.623179 72.730257 38.623179l220.422564 36.233847 123.746461 80.502153s18.326974-5.933949 33.529436 4.804923c15.832615 11.106462 10.633846 34.474667 8.874667 44.950975-1.68041 9.977436-165.205333 140.471795-165.205334 140.471795l17.11918 255.684923-57.107692 63.750564s-8.008205 7.850667-24.418462 9.924923c-9.504821 1.207795-21.740308-2.625641-21.740308-2.625641l-35.603692-102.242462-169.038769-238.670769z" fill="#96010C" p-id="5228"></path><path d="M665.206154 54.875897l-29.774769 2.231795-20.873847 17.539282 7.430565 33.660718s0.971487 25.206154-18.878359 37.284103c-19.82359 12.077949-58.814359 31.927795-58.814359 31.927795l-26.860308 44.478359s-17.276718-5.671385-45.42359-20.164923c-26.335179-13.600821-60.022154-44.635897-60.022154-44.635898l-60.232205-4.069743s-11.526564-1.050256-21.188923 9.189743c-13.915897 14.887385-8.979692 46.395077 18.300718 75.277128 26.25641 27.753026 83.049026 61.597538 95.678359 70.971077 12.65559 9.347282 31.927795 21.346462 42.902974 27.516718 10.555077 5.907692 23.18441 14.388513 28.698257 13.364513 5.513846-1.129026 13.67959-19.928615 39.515897-38.071795 25.862564-18.169436 51.121231-33.529436 92.422564-47.865436 41.275077-14.309744 80.869744-30.798769 92.947693-38.465641 12.077949-7.693128-4.384821-59.917128-19.272205-91.844923-14.887385-31.927795-55.532308-81.604923-56.556308-78.322872z" fill="#AF0C1B" p-id="5229"></path><path d="M520.533333 191.829333c-10.161231 13.443282-8.244513 29.144615-8.244512 29.144616s22.16041 13.259487 44.005743 20.873846c39.594667 13.758359 128.735179 9.924923 171.611898-9.373539 42.876718-19.272205 63.829333-35.918769 70.367179-56.083692 7.693128-23.657026 14.099692-71.496205-31.980308-108.386461-52.775385-42.325333-132.46359-19.193436-132.463589-8.139488 0 11.027692 31.901538 2.205538 31.901538 42.272821 0 40.093538-35.18359 64.328205-70.94482 69.316923-35.761231 4.936205-58.893128 0-74.253129 20.374974z" fill="#DB132C" p-id="5230"></path><path d="M337.92 157.197128s-4.096-16.147692 9.347282-29.118359c20.322462-19.849846 46.237538-30.247385 61.046154-46.237538 14.808615-16.01641 35.84-46.316308 87.433846-53.353026 76.484923-10.502564 125.925744 18.143179 136.979692 53.353026 11.027692 35.18359-9.924923 47.261538-31.37641 47.839179-21.425231 0.551385-33.345641-9.531077-72.625231-2.730666-66.56 11.552821-89.691897 47.287795-95.678359 50.674871-6.091487 3.255795-25.862564-8.270769-52.801641-15.465025-19.429744-5.198769-33.529436-3.938462-42.325333-4.962462z" fill="#F71538" p-id="5231"></path><path d="M556.977231 387.019487s13.600821-45.187282 58.00041-73.833025c44.478359-28.619487 76.878769-29.354667 133.435077-55.033436s76.091077-42.561641 85.123282-48.469334c9.268513-6.091487 17.670564-11.605333 24.155897-0.971487 4.174769 6.879179-3.045744 35.052308-22.16041 62.411487-19.508513 27.910564-38.728205 43.270564-53.300513 91.372308-19.245949 63.409231 17.77559 121.094564-21.740307 223.021949-12.786872 32.951795-42.797949 63.12041-70.708513 82.707692-27.936821 19.613538-68.161641 23.998359-68.161641 23.998359s14.309744-9.977436 22.16041-46.788923c3.833436-18.090667 9.58359-50.149744 5.198769-84.33559-12.576821-97.673846-92.002462-174.08-92.002461-174.08z" fill="#CD0E1F" p-id="5232"></path><path d="M253.899487 373.444923c0.945231 21.425231-9.137231 99.433026 3.938462 162.080821 10.24 49.283282 60.914872 136.402051 155.910564 162.002051 87.355077 23.604513 180.854154-0.735179 180.854154-0.73518s35.288615-59.602051 17.460512-146.484512c-19.429744-94.706872-114.084103-165.100308-223.205743-219.030975C257.732923 266.502564 233.944615 188.389744 233.944615 188.389744s-43.113026-11.290256-53.90441 27.542974c-16.567795 59.497026 72.388923 125.111795 73.833026 157.512205z" fill="#E2122D" p-id="5233"></path></svg>